<svg width="137" height="59" viewBox="0 0 137 59" fill="none" xmlns="http://www.w3.org/2000/svg">
<path d="M0 0H114C126.703 0 137 10.2975 137 23V23C137 35.7025 126.703 46 114 46H0V0Z" fill="#4169E1"/>
<path d="M0 46H12V59L0 46Z" fill="#0B50B7"/>
<path d="M37.248 21.288C37.248 21.8853 37.104 22.4453 36.816 22.968C36.5387 23.4907 36.096 23.912 35.488 24.232C34.8907 24.552 34.1333 24.712 33.216 24.712H31.344V29H29.104V17.832H33.216C34.08 17.832 34.816 17.9813 35.424 18.28C36.032 18.5787 36.4853 18.9893 36.784 19.512C37.0933 20.0347 37.248 20.6267 37.248 21.288ZM33.12 22.904C33.7387 22.904 34.1973 22.7653 34.496 22.488C34.7947 22.2 34.944 21.8 34.944 21.288C34.944 20.2 34.336 19.656 33.12 19.656H31.344V22.904H33.12ZM38.2624 24.536C38.2624 23.64 38.4384 22.8453 38.7904 22.152C39.153 21.4587 39.6384 20.9253 40.2464 20.552C40.865 20.1787 41.553 19.992 42.3104 19.992C42.9717 19.992 43.5477 20.1253 44.0384 20.392C44.5397 20.6587 44.9397 20.9947 45.2384 21.4V20.136H47.4944V29H45.2384V27.704C44.9504 28.12 44.5504 28.4667 44.0384 28.744C43.537 29.0107 42.9557 29.144 42.2944 29.144C41.5477 29.144 40.865 28.952 40.2464 28.568C39.6384 28.184 39.153 27.6453 38.7904 26.952C38.4384 26.248 38.2624 25.4427 38.2624 24.536ZM45.2384 24.568C45.2384 24.024 45.1317 23.56 44.9184 23.176C44.705 22.7813 44.417 22.4827 44.0544 22.28C43.6917 22.0667 43.3024 21.96 42.8864 21.96C42.4704 21.96 42.0864 22.0613 41.7344 22.264C41.3824 22.4667 41.0944 22.7653 40.8704 23.16C40.657 23.544 40.5504 24.0027 40.5504 24.536C40.5504 25.0693 40.657 25.5387 40.8704 25.944C41.0944 26.3387 41.3824 26.6427 41.7344 26.856C42.097 27.0693 42.481 27.176 42.8864 27.176C43.3024 27.176 43.6917 27.0747 44.0544 26.872C44.417 26.6587 44.705 26.36 44.9184 25.976C45.1317 25.5813 45.2384 25.112 45.2384 24.568ZM53.0741 29.144C52.3488 29.144 51.6981 29.016 51.1221 28.76C50.5461 28.4933 50.0875 28.136 49.7461 27.688C49.4155 27.24 49.2341 26.744 49.2021 26.2H51.4581C51.5008 26.5413 51.6661 26.824 51.9541 27.048C52.2528 27.272 52.6208 27.384 53.0581 27.384C53.4848 27.384 53.8155 27.2987 54.0501 27.128C54.2955 26.9573 54.4181 26.7387 54.4181 26.472C54.4181 26.184 54.2688 25.9707 53.9701 25.832C53.6821 25.6827 53.2181 25.5227 52.5781 25.352C51.9168 25.192 51.3728 25.0267 50.9461 24.856C50.5301 24.6853 50.1675 24.424 49.8581 24.072C49.5595 23.72 49.4101 23.2453 49.4101 22.648C49.4101 22.1573 49.5488 21.7093 49.8261 21.304C50.1141 20.8987 50.5195 20.5787 51.0421 20.344C51.5755 20.1093 52.1995 19.992 52.9141 19.992C53.9701 19.992 54.8128 20.2587 55.4421 20.792C56.0715 21.3147 56.4181 22.024 56.4821 22.92H54.3381C54.3061 22.568 54.1568 22.2907 53.8901 22.088C53.6341 21.8747 53.2875 21.768 52.8501 21.768C52.4448 21.768 52.1301 21.8427 51.9061 21.992C51.6928 22.1413 51.5861 22.3493 51.5861 22.616C51.5861 22.9147 51.7355 23.144 52.0341 23.304C52.3328 23.4533 52.7968 23.608 53.4261 23.768C54.0661 23.928 54.5941 24.0933 55.0101 24.264C55.4261 24.4347 55.7835 24.7013 56.0821 25.064C56.3915 25.416 56.5515 25.8853 56.5621 26.472C56.5621 26.984 56.4181 27.4427 56.1301 27.848C55.8528 28.2533 55.4475 28.5733 54.9141 28.808C54.3915 29.032 53.7781 29.144 53.0741 29.144ZM60.6409 17.16V29H58.4009V17.16H60.6409ZM66.79 29.144C65.9367 29.144 65.1687 28.9573 64.486 28.584C63.8033 28.2 63.2647 27.6613 62.87 26.968C62.486 26.2747 62.294 25.4747 62.294 24.568C62.294 23.6613 62.4913 22.8613 62.886 22.168C63.2913 21.4747 63.8407 20.9413 64.534 20.568C65.2273 20.184 66.0007 19.992 66.854 19.992C67.7073 19.992 68.4807 20.184 69.174 20.568C69.8673 20.9413 70.4113 21.4747 70.806 22.168C71.2113 22.8613 71.414 23.6613 71.414 24.568C71.414 25.4747 71.206 26.2747 70.79 26.968C70.3847 27.6613 69.83 28.2 69.126 28.584C68.4327 28.9573 67.654 29.144 66.79 29.144ZM66.79 27.192C67.1953 27.192 67.574 27.096 67.926 26.904C68.2887 26.7013 68.5767 26.4027 68.79 26.008C69.0033 25.6133 69.11 25.1333 69.11 24.568C69.11 23.7253 68.886 23.08 68.438 22.632C68.0007 22.1733 67.462 21.944 66.822 21.944C66.182 21.944 65.6433 22.1733 65.206 22.632C64.7793 23.08 64.566 23.7253 64.566 24.568C64.566 25.4107 64.774 26.0613 65.19 26.52C65.6167 26.968 66.15 27.192 66.79 27.192ZM77.9691 20.008C79.0251 20.008 79.8785 20.344 80.5291 21.016C81.1798 21.6773 81.5051 22.6053 81.5051 23.8V29H79.2651V24.104C79.2651 23.4 79.0891 22.8613 78.7371 22.488C78.3851 22.104 77.9051 21.912 77.2971 21.912C76.6785 21.912 76.1878 22.104 75.8251 22.488C75.4731 22.8613 75.2971 23.4 75.2971 24.104V29H73.0571V20.136H75.2971V21.24C75.5958 20.856 75.9745 20.5573 76.4331 20.344C76.9025 20.12 77.4145 20.008 77.9691 20.008ZM97.2878 21.816L96.7598 24.28H98.7918V26.28H96.3278L95.7517 29H93.6238L94.1998 26.28H91.2878L90.7118 29H88.5998L89.1758 26.28H86.7598V24.28H89.6078L90.1358 21.816H87.7358V19.816H90.5677L91.1278 17.16H93.2398L92.6798 19.816H95.5918L96.1518 17.16H98.2798L97.7198 19.816H99.7678V21.816H97.2878ZM95.1597 21.816H92.2478L91.7198 24.28H94.6318L95.1597 21.816ZM101.283 26.728V24.968L106.515 17.48H109.123V24.776H110.531V26.728H109.123V29H106.883V26.728H101.283ZM107.027 19.88L103.747 24.776H107.027V19.88Z" fill="white"/>
</svg>
